<svg width="26" height="26" viewBox="0 0 26 26" fill="none" xmlns="http://www.w3.org/2000/svg">
<rect width="26" height="26" rx="6" fill="#6D9CFA"/>
<path fill-rule="evenodd" clip-rule="evenodd" d="M12.611 3C8.6358 3 5.69982 6.70698 6.61031 10.5766C6.63192 10.6684 6.62182 10.7649 6.58164 10.8502L5.14671 13.8995C4.93656 14.346 4.82759 14.8335 4.82759 15.3271C4.82759 16.6636 5.62764 17.8655 6.92555 18.1847C8.34326 18.5334 10.4247 18.8908 13 18.8908C15.5753 18.8908 17.6567 18.5334 19.0745 18.1847C20.3724 17.8655 21.1724 16.6636 21.1724 15.3271C21.1724 14.8335 21.0635 14.346 20.8533 13.8995L19.4184 10.8502C19.3782 10.7649 19.3681 10.6684 19.3897 10.5766C20.3002 6.70698 17.3642 3 13.389 3H12.611ZM11.3614 20.7563C11.1379 20.4076 10.6741 20.306 10.3253 20.5294C9.97652 20.7529 9.87493 21.2167 10.0984 21.5655C10.2567 21.8126 10.4881 22.0363 10.7792 22.2246C11.0704 22.4128 11.4163 22.5623 11.7974 22.6643C12.1784 22.7664 12.5871 22.819 13 22.819C13.4129 22.819 13.8216 22.7664 14.2026 22.6643C14.5837 22.5623 14.9296 22.4128 15.2208 22.2246C15.5119 22.0363 15.7433 21.8126 15.9016 21.5655C16.1251 21.2167 16.0235 20.7529 15.6747 20.5294C15.3259 20.306 14.8621 20.4076 14.6386 20.7563C14.6154 20.7925 14.5505 20.8717 14.4064 20.9649C14.263 21.0576 14.0647 21.1484 13.8146 21.2154C13.5657 21.282 13.2878 21.319 13 21.319C12.7122 21.319 12.4343 21.282 12.1854 21.2154C11.9353 21.1484 11.737 21.0576 11.5936 20.9649C11.4495 20.8717 11.3846 20.7925 11.3614 20.7563Z" fill="white"/>
<circle cx="18" cy="6" r="3" fill="#F2735B"/>
</svg>
